{
    "asset": {
        "version": "2.0",
        "generator": "Open Asset Import Library (assimp v3.1.202510665)"
    },
    "accessors": [
        {
            "bufferView": 0,
            "byteOffset": 0,
            "componentType": 5126,
            "count": 1721,
            "type": "VEC3",
            "max": [
                1.0681462287902833,
                1.2666276693344117,
                2.6743950843811037
            ],
            "min": [
                -1.0681462287902833,
                -1.3279157876968384,
                -4.199631690979004
            ]
        },
        {
            "bufferView": 1,
            "byteOffset": 0,
            "componentType": 5126,
            "count": 1721,
            "type": "VEC3",
            "max": [
                0.9992896318435669,
                0.9980429410934448,
                0.9954995512962341
            ],
            "min": [
                -0.9988743662834168,
                -0.9996508955955505,
                -0.9927233457565308
            ]
        },
        {
            "bufferView": 2,
            "byteOffset": 0,
            "componentType": 5126,
            "count": 1721,
            "type": "VEC2",
            "max": [
                1.020934820175171,
                0.9774718284606934
            ],
            "min": [
                0.004605304449796677,
                0.05761080980300903
            ]
        },
        {
            "bufferView": 3,
            "byteOffset": 0,
            "componentType": 5123,
            "count": 9102,
            "type": "SCALAR",
            "max": [
                1720.0
            ],
            "min": [
                0.0
            ]
        }
    ],
    "buffers": [
        {
            "byteLength": 73276,
            "uri": "Snailfish.bin"
        }
    ],
    "bufferViews": [
        {
            "buffer": 0,
            "byteOffset": 0,
            "byteLength": 20652,
            "target": 34962
        },
        {
            "buffer": 0,
            "byteOffset": 20652,
            "byteLength": 20652,
            "target": 34962
        },
        {
            "buffer": 0,
            "byteOffset": 41304,
            "byteLength": 13768,
            "target": 34962
        },
        {
            "buffer": 0,
            "byteOffset": 55072,
            "byteLength": 18204,
            "target": 34963
        }
    ],
    "materials": [
        {
            "name": "lambert1",
            "pbrMetallicRoughness": {
                "baseColorFactor": [
                    0.5,
                    0.5,
                    0.5,
                    1.0
                ],
                "metallicFactor": 0.0
            }
        }
    ],
    "meshes": [
        {
            "name": "polySurface6",
            "primitives": [
                {
                    "mode": 4,
                    "material": 0,
                    "indices": 3,
                    "attributes": {
                        "POSITION": 0,
                        "NORMAL": 1,
                        "TEXCOORD_0": 2
                    }
                }
            ]
        }
    ],
    "nodes": [
        {
            "name": "RootNode",
            "children": [
                1,
                3,
                5,
                11,
                23,
                25
            ]
        },
        {
            "name": "polySurface1",
            "children": [
                2
            ]
        },
        {
            "name": "transform2"
        },
        {
            "name": "pSphere1",
            "matrix": [
                0.11948427557945252,
                0.06744971126317978,
                0.011991648003458977,
                0.0,
                -0.04759305715560913,
                0.07046021521091461,
                0.07789595425128937,
                0.0,
                0.036297306418418887,
                -0.08131930232048035,
                0.09573379904031754,
                0.0,
                -0.506576418876648,
                0.1942392736673355,
                2.105814218521118,
                1.0
            ],
            "children": [
                4
            ]
        },
        {
            "name": "transform1"
        },
        {
            "name": "polySurface2",
            "children": [
                6,
                8,
                10
            ]
        },
        {
            "name": "polySurface3",
            "children": [
                7
            ]
        },
        {
            "name": "transform5"
        },
        {
            "name": "polySurface4",
            "children": [
                9
            ]
        },
        {
            "name": "transform4"
        },
        {
            "name": "transform3"
        },
        {
            "name": "polySurface3_node",
            "children": [
                12,
                18,
                20,
                22
            ]
        },
        {
            "name": "polySurface5",
            "children": [
                13,
                15,
                17
            ]
        },
        {
            "name": "polySurface8",
            "children": [
                14
            ]
        },
        {
            "name": "transform8"
        },
        {
            "name": "polySurface9",
            "children": [
                16
            ]
        },
        {
            "name": "transform9"
        },
        {
            "name": "transform7"
        },
        {
            "name": "polySurface6",
            "children": [
                19
            ]
        },
        {
            "name": "transform12"
        },
        {
            "name": "polySurface7",
            "children": [
                21
            ]
        },
        {
            "name": "transform11"
        },
        {
            "name": "transform6"
        },
        {
            "name": "polySurface9_node",
            "children": [
                24
            ]
        },
        {
            "name": "transform10"
        },
        {
            "name": "polySurface6_node",
            "mesh": 0
        }
    ],
    "scenes": [
        {
            "nodes": [
                0
            ]
        }
    ],
    "scene": 0
}